<svg id="Layer_1" height="512" viewBox="0 0 64 64" width="512" xmlns="http://www.w3.org/2000/svg" data-name="Layer 1"><path d="m61 56h-1v-35a1 1 0 0 0 -1-1h-40a1 1 0 0 0 -1 1v3h2v-2h38v34h-52v-34h6v7h-3a1 1 0 0 0 -.651 1.759l7 6a1 1 0 0 0 1.3 0l7-6a1 1 0 0 0 -.649-1.759h-3v-3h-2v4a1 1 0 0 0 1 1h1.3l-4.3 3.683-4.3-3.683h1.3a1 1 0 0 0 1-1v-9a1 1 0 0 0 -1-1h-8a1 1 0 0 0 -1 1v35h-1a1 1 0 0 0 -1 1v2a3 3 0 0 0 3 3h54a3 3 0 0 0 3-3v-2a1 1 0 0 0 -1-1zm-1 3a1 1 0 0 1 -1 1h-54a1 1 0 0 1 -1-1v-1h56z"/><path d="m7 11a9 9 0 1 0 9-9 9.011 9.011 0 0 0 -9 9zm9 4a1 1 0 0 1 -1-1v-1h-2v1a3 3 0 0 0 2 2.816v1.1a6.991 6.991 0 0 1 0-13.836v1.1a3 3 0 0 0 -2 2.82v1a3 3 0 0 0 3 3 1 1 0 0 1 1 1v1a1 1 0 0 1 -1 1zm1-7v1h2v-1a3 3 0 0 0 -2-2.816v-1.104a6.991 6.991 0 0 1 0 13.84v-1.1a3 3 0 0 0 2-2.82v-1a3 3 0 0 0 -3-3 1 1 0 0 1 -1-1v-1a1 1 0 0 1 2 0z"/><path d="m13 53a1 1 0 0 0 1 1h3a1 1 0 0 0 1-1v-3.882l7.553 3.782a1 1 0 0 0 1.447-.9v-17a1 1 0 0 0 -1.447-.9l-7.789 3.9h-3.764a1 1 0 0 0 -1 1v1h-3a1 1 0 0 0 -1 1v5a1 1 0 0 0 1 1h3zm6-13.382 6-3v13.764l-6-3zm-4 6.382v-6h2v7h-2zm0 3h1v3h-1zm-4-4v-3h2v3z"/><path d="m40.015 36.851-4.6 1.381a3 3 0 1 0 .573 1.917l4.6-1.381a2.983 2.983 0 0 0 5.234-2.746l5.6-4.48a3.072 3.072 0 1 0 -1.247-1.564l-5.6 4.481a2.976 2.976 0 0 0 -4.561 2.392zm-7.015 4.149a1 1 0 1 1 1-1 1 1 0 0 1 -1 1zm20-13a1 1 0 1 1 -1 1 1 1 0 0 1 1-1zm-9 9a1 1 0 1 1 -1-1 1 1 0 0 1 1 1z"/><path d="m44 52v1a1 1 0 0 0 1 1h10a1 1 0 0 0 1-1v-1a6 6 0 0 0 -3.107-5.253 4 4 0 1 0 -5.786 0 6 6 0 0 0 -3.107 5.253zm6-10a2 2 0 1 1 -2 2 2 2 0 0 1 2-2zm0 6a4 4 0 0 1 4 4h-8a4 4 0 0 1 4-4z"/><path d="m28 5a3 3 0 1 0 3-3 3 3 0 0 0 -3 3zm4 0a1 1 0 1 1 -1-1 1 1 0 0 1 1 1z"/><path d="m37 12a3 3 0 1 0 3-3 3 3 0 0 0 -3 3zm4 0a1 1 0 1 1 -1-1 1 1 0 0 1 1 1z"/><path d="m37 4h2v2h-2z"/><path d="m41 4h2v2h-2z"/><path d="m45 11h2v2h-2z"/><path d="m49 11h2v2h-2z"/><path d="m29 25v8h2v-7h11v-2h-12a1 1 0 0 0 -1 1z"/><path d="m29 53a1 1 0 0 0 1 1h12v-2h-11v-7h-2z"/><path d="m44 24h2v2h-2z"/></svg>