<svg id="Capa_1" enable-background="new 0 0 512.014 512.014" viewBox="0 0 512.014 512.014" xmlns="http://www.w3.org/2000/svg"><g><path d="m242.696 446.054c-4.143 0-7.5 3.357-7.5 7.5v6.716c0 4.143 3.357 7.5 7.5 7.5s7.5-3.357 7.5-7.5v-6.716c0-4.143-3.357-7.5-7.5-7.5z"/><path d="m402.639 47.777c.906 0 1.827-.165 2.723-.515l5.636-2.197c3.859-1.504 5.768-5.853 4.263-9.712s-5.852-5.769-9.712-4.263l-5.636 2.197c-3.859 1.504-5.768 5.853-4.263 9.712 1.155 2.965 3.988 4.778 6.989 4.778z"/><path d="m416.681 211.547c-33.373 0-60.524 27.15-60.524 60.523s27.151 60.524 60.524 60.524 60.524-27.151 60.524-60.524-27.151-60.523-60.524-60.523zm0 106.048c-25.103 0-45.524-20.422-45.524-45.524s20.422-45.523 45.524-45.523 45.524 20.422 45.524 45.523c0 25.102-20.422 45.524-45.524 45.524z"/><path d="m432.88 288.951-16.046-.142c1.214-2.707 1.769-5.331 1.814-8.386h2.686c4.107 0 7.688-3.165 7.811-7.27.127-4.247-3.278-7.73-7.497-7.73h-6.67c-1.306-2.316-1.901-4.071-2.17-5.243-.229-.998-.031-2.045.504-2.918.517-.843 1.319-1.491 2.274-1.748 2.256-.606 4.984-.329 6.355.505 1.741 1.059 2.877 2.407 3.1 3.192 1.13 3.984 5.275 6.296 9.262 5.17 3.984-1.13 6.3-5.276 5.17-9.262-1.306-4.604-4.854-8.947-9.738-11.918-6.508-3.956-16.23-4.003-23.115-.113-7.79 4.397-10.924 12.631-7.869 22.483-3.679.74-6.383 4.171-5.971 8.152.399 3.858 3.824 6.7 7.703 6.7h3.205c-.075 1.748-.764 3.152-3.057 6.236l-3.727 4.684c-1.428 1.794-2.092 4.132-1.611 6.375.759 3.537 3.826 5.935 7.279 5.966l30.487.27h.067c4.196 0 7.6-3.453 7.497-7.69-.101-4.095-3.647-7.276-7.743-7.313z"/><path d="m150.222 92.482v.841c0 4.143 3.357 7.5 7.5 7.5s7.5-3.357 7.5-7.5v-.841h.842c4.143 0 7.5-3.357 7.5-7.5s-3.357-7.5-7.5-7.5h-.842v-.842c0-4.143-3.357-7.5-7.5-7.5s-7.5 3.357-7.5 7.5v.842h-.841c-4.143 0-7.5 3.357-7.5 7.5s3.357 7.5 7.5 7.5z"/><path d="m480.342 208.113v-89.097c0-9.563-7.78-17.344-17.344-17.344h-38.817v-29.82l5.027-1.86c9.046-3.346 16.247-10.015 20.277-18.776 4.03-8.763 4.407-18.57 1.062-27.615-3.346-9.047-10.015-16.248-18.777-20.278-8.762-4.031-18.57-4.407-27.615-1.061l-135.756 50.217c-3.886 1.438-5.87 5.751-4.433 9.636s5.751 5.867 9.636 4.433l135.756-50.217c5.286-1.955 11.02-1.736 16.144.619 5.122 2.356 9.021 6.566 10.977 11.854s1.735 11.021-.62 16.144c-2.356 5.122-6.566 9.021-11.854 10.977l-9.78 3.618c-.104.036-.206.073-.307.114l-203.753 75.371v-45.013l33.451-12.375c3.885-1.438 5.869-5.752 4.432-9.637-1.438-3.885-5.753-5.871-9.637-4.432l-29.361 10.863c-4.986-23.761-26.107-41.658-51.328-41.658-28.917 0-52.442 23.525-52.442 52.442v16.455h-82.885c-9.563 0-17.344 7.78-17.344 17.344v187.34c0 4.143 3.357 7.5 7.5 7.5s7.5-3.357 7.5-7.5v-139.902h35.68c5.987 0 11.346-3.57 13.652-9.095l3.168-7.588h32.729v32.016h-11.703c-7.11 0-12.895 5.784-12.895 12.895v104.202c0 7.11 5.784 12.895 12.895 12.895h11.702v31.763h-13.442c-4.143 0-7.5 3.357-7.5 7.5v58.571h-61.942c-1.292 0-2.344-1.052-2.344-2.344v-70.926c0-4.143-3.357-7.5-7.5-7.5s-7.5 3.357-7.5 7.5v70.926c0 9.563 7.78 17.344 17.344 17.344h174.927c6.401 21.219.648 42.197-17.5 63.91-12.483 2.255-24.946 5.183-37.376 8.784-3.979 1.153-6.27 5.312-5.117 9.291 1.154 3.979 5.312 6.267 9.291 5.117 63.754-18.471 128.402-18.471 192.156 0 .697.201 1.399.298 2.091.298 3.253 0 6.249-2.134 7.2-5.415 1.152-3.979-1.139-8.138-5.117-9.291-12.43-3.601-24.893-6.529-37.376-8.784-18.148-21.714-23.901-42.691-17.5-63.91h174.926c9.563 0 17.344-7.78 17.344-17.344v-71.225c3.561-3.537 6.848-7.392 9.812-11.539 2.408-3.37 1.63-8.054-1.74-10.463-3.367-2.406-8.054-1.629-10.463 1.74-14.131 19.769-37.035 31.57-61.271 31.57-41.512 0-75.283-33.771-75.283-75.283 0-41.511 33.771-75.282 75.283-75.282 41.511 0 75.282 33.771 75.282 75.282 0 6.43-.814 12.823-2.422 19.005-1.042 4.009 1.362 8.104 5.372 9.146 4.005 1.039 8.103-1.363 9.146-5.372 1.927-7.412 2.904-15.076 2.904-22.778-.001-24.967-10.188-47.598-26.622-63.958zm-56.161-41.658h41.161v29.598c-12.07-7.753-26.097-12.712-41.161-13.957zm38.817-49.782c1.292 0 2.344 1.052 2.344 2.344v32.438h-41.161v-34.782zm-53.817-15h-65.613l65.613-24.271zm-106.163 15h106.163v34.782h-199.016v-.435zm-92.853 80.115h9.597v99.991h-9.597zm-137.751-62.016c-5.987 0-11.346 3.57-13.652 9.095l-3.168 7.588h-35.543v-32.438c0-1.292 1.052-2.344 2.344-2.344h82.885v18.1h-32.866zm23.269 162.007v-99.991h9.597v99.991zm24.596-211.561c0-20.646 16.797-37.442 37.442-37.442 20.412 0 37.061 16.418 37.436 36.742-.009.237-.007.475.007.714v258.311h-29.943v-101.358c0-4.143-3.357-7.5-7.5-7.5s-7.5 3.357-7.5 7.5v101.357h-29.942zm-20.942 273.324h116.77v51.071h-116.77zm185.278 126.807c-13.942-1.68-27.93-2.52-41.919-2.52s-27.977.84-41.919 2.52c12.897-20.08 16.947-40.419 12.079-60.735h59.681c-4.867 20.315-.818 40.656 12.078 60.735zm41.782-213.279c0 49.782 40.501 90.283 90.283 90.283 17.439 0 34.302-5.093 48.661-14.286v59.202c0 1.292-1.052 2.344-2.344 2.344h-231.891v-58.571c0-4.143-3.357-7.5-7.5-7.5h-13.441v-31.763h11.702c7.11 0 12.895-5.784 12.895-12.895v-104.201c0-7.11-5.784-12.895-12.895-12.895h-11.702v-15.333h199.016v15.642c-46.287 3.824-82.784 42.716-82.784 89.973z"/></g></svg>