<svg id="flat" height="512" viewBox="0 0 512 512" width="512" xmlns="http://www.w3.org/2000/svg"><path d="m240 384h80v72h-80z" fill="#cad8ed"/><path d="m280 424a8.00039 8.00039 0 0 1 -8-8v-32a8 8 0 0 1 16 0v32a8.00039 8.00039 0 0 1 -8 8z" fill="#a6bce3"/><path d="m448 192v176a16 16 0 0 1 -16 16h-304a16 16 0 0 1 -16-16v-176z" fill="#5771e5"/><path d="m112 192v-32a16 16 0 0 1 16-16h304a16 16 0 0 1 16 16v32z" fill="#89a8f5"/><path d="m473.70972 96a14.53179 14.53179 0 0 1 -13.42554-8.9707 14.53169 14.53169 0 0 1 3.15015-15.83618l10.10473-10.10474-22.62744-22.62744-10.10474 10.10473a14.53151 14.53151 0 0 1 -24.80688-10.27539v-14.29028h-32v14.29028a14.53151 14.53151 0 0 1 -24.80688 10.27539l-10.10474-10.10473-22.62744 22.62744 10.10473 10.10474a14.53169 14.53169 0 0 1 3.15015 15.83618 14.53179 14.53179 0 0 1 -13.42554 8.9707h-14.29028v32h14.29028a14.53194 14.53194 0 0 1 13.42554 8.97046v.00024a14.53169 14.53169 0 0 1 -3.15015 15.83618l-10.10473 10.10474 22.62744 22.62744 10.10474-10.10473a14.53151 14.53151 0 0 1 24.80688 10.27539v14.29028h32v-14.29028a14.53151 14.53151 0 0 1 24.80688-10.27539l10.10474 10.10473 22.62744-22.62744-10.10473-10.10474a14.53169 14.53169 0 0 1 -3.15015-15.83618v-.00024a14.53194 14.53194 0 0 1 13.42554-8.97046h14.29028v-32zm-73.70972 40a24 24 0 1 1 24-24 23.99994 23.99994 0 0 1 -24 24z" fill="#ed6445"/><path d="m24 344h144v144h-144z" fill="#51a37e"/><path d="m24 432h144v16h-144z" fill="#308c72"/><path d="m24 384h144v16h-144z" fill="#308c72"/><circle cx="48" cy="368" fill="#90d4b1" r="8"/><circle cx="48" cy="416" fill="#90d4b1" r="8"/><circle cx="48" cy="464" fill="#90d4b1" r="8"/><g fill="#308c72"><path d="m112 360h16v16h-16z"/><path d="m136 360h16v16h-16z"/><path d="m112 408h16v16h-16z"/><path d="m136 408h16v16h-16z"/><path d="m112 456h16v16h-16z"/><path d="m136 456h16v16h-16z"/></g><path d="m200 456h160v32h-160z" fill="#e4e9f2"/><path d="m280 272h40v80h-40z" fill="#f7c04a"/><path d="m240 288h40v64h-40z" fill="#f5a431"/><path d="m200 304h40v48h-40z" fill="#eb8117"/><path d="m320 256h40v96h-40z" fill="#f7d179"/><path d="m360 240h40v112h-40z" fill="#fcedc0"/><circle cx="136" cy="168" fill="#f79a7e" r="8"/><circle cx="160" cy="168" fill="#f7c04a" r="8"/><circle cx="184" cy="168" fill="#90d4b1" r="8"/><path d="m200 344h224v16h-224z" fill="#4356e6"/></svg>