<svg id="Capa_1" enable-background="new 0 0 512 512" height="512" viewBox="0 0 512 512" width="512" xmlns="http://www.w3.org/2000/svg"><g><g><path d="m256 256.998c-141.387 0-243.97-89.801-222.896-127 43.971-77.62 127.316-129.998 222.896-129.998s178.925 52.378 222.896 129.998c21.074 37.199-81.509 127-222.896 127z" fill="#a8eb58"/><path d="m512 256c0 26.051-3.891 51.191-11.129 74.871-5.031 16.469-11.672 32.231-19.75 47.109-8.25 15.2-147.391 56.018-225.121 56.018s-216.871-40.818-225.109-56.018c-3.289-6.031-6.332-12.21-9.121-18.531-14-31.629-21.77-66.629-21.77-103.449 0-46.219 12.25-89.57 33.68-127 44.121 77.07 127.16 129 222.32 129s178.211-51.93 222.32-129c21.43 37.43 33.68 80.781 33.68 127z" fill="#80cf8c"/><path d="m481.262 377.699c-7.16 13.223-15.434 25.742-24.723 37.43-2.758 3.475-5.605 6.876-8.539 10.2-6.042 6.845-51.577 45.772-70 55.779-36.268 19.701-77.829 30.892-122 30.892-44.254 0-85.887-11.233-122.203-31.002-10.797-17-53.797-49-69.797-55.669-2.934-3.324-5.782-6.724-8.539-10.2-9.289-11.688-17.563-24.207-24.723-37.43z" fill="#599d8a"/></g><g><path d="m447.716 188.931-191.716-22.467-191.716 22.467v236.698c19.7 22.248 43.2 41.052 69.502 55.369h244.426c26.302-14.317 49.803-33.121 69.502-55.369v-236.698z" fill="#e7faff"/><path d="m447.716 188.931-191.716-22.467v314.533h122.213c26.302-14.317 49.803-33.121 69.502-55.369v-236.697z" fill="#dae3f9"/><g><path d="m244.767 413.598h22.467v22.467h-22.467z" fill="#5f657a"/></g><path d="m256 413.598h11.233v22.467h-11.233z" fill="#535564"/><g><path d="m289.7 413.598h22.467v22.467h-22.467z" fill="#535564"/></g><g><path d="m199.833 413.598h22.467v22.467h-22.467z" fill="#5f657a"/></g><g><path d="m447.716 143.998v44.933h-383.432v-44.933z" fill="#eaa54e"/></g><g><path d="m447.716 143.998v44.933h-297.716v-44.933z" fill="#e48633"/></g><path d="m256 143.998h191.716v44.933h-191.716z" fill="#da5f2a"/><circle cx="256" cy="312.498" fill="#6abcaf" r="67.4"/><path d="m323.4 312.498c0-37.167-30.233-67.4-67.4-67.4v134.8c37.167 0 67.4-30.234 67.4-67.4z" fill="#52908f"/><path d="m256 233.865c-43.354 0-78.633 35.28-78.633 78.633s35.28 78.633 78.633 78.633 78.633-35.28 78.633-78.633-35.279-78.633-78.633-78.633zm55.031 67.399h-21.723c-.904-15.872-3.811-29.318-8.876-39.107 15.465 7.542 27.072 21.802 30.599 39.107zm-65.636 22.467h21.211c-1.486 24.05-7.014 39.363-10.605 43.924-3.592-4.561-9.12-19.873-10.606-43.924zm0-22.467c1.486-24.051 7.014-39.363 10.605-43.924 3.591 4.561 9.119 19.874 10.605 43.924zm-13.827-39.106c-5.065 9.789-7.973 23.235-8.876 39.107h-21.724c3.528-17.306 15.135-31.566 30.6-39.107zm-30.599 61.573h21.724c.904 15.872 3.811 29.318 8.876 39.107-15.466-7.542-27.073-21.802-30.6-39.107zm79.463 39.107c5.065-9.789 7.973-23.235 8.876-39.107h21.723c-3.527 17.305-15.134 31.565-30.599 39.107z" fill="#8fd59a"/><path d="m266.605 301.264h-10.605v22.467h10.605c-1.486 24.05-7.014 39.363-10.605 43.924v23.476c43.354 0 78.633-35.28 78.633-78.633s-35.28-78.633-78.633-78.633v23.476c3.591 4.56 9.119 19.873 10.605 43.923zm44.426 0h-21.723c-.904-15.872-3.811-29.318-8.876-39.107 15.465 7.542 27.072 21.802 30.599 39.107zm-21.723 22.467h21.723c-3.527 17.305-15.135 31.565-30.6 39.107 5.066-9.789 7.973-23.235 8.877-39.107z" fill="#6abcaf"/></g><g fill="#fff"><path d="m274.109 37.529h-1.524c-6.754 0-12.226-5.477-12.226-12.227v-1.523h-8.715v1.523c0 6.75-5.477 12.227-12.227 12.227h-1.527v8.715h1.527c6.75 0 12.227 5.472 12.227 12.226v1.528h8.715v-1.528c0-6.754 5.472-12.226 12.226-12.226h1.524z"/><path d="m168 91.529h-1.524c-6.754 0-12.226-5.477-12.226-12.227v-1.523h-8.715v1.523c0 6.75-5.477 12.227-12.227 12.227h-1.527v8.715h1.527c6.75 0 12.227 5.472 12.227 12.226v1.528h8.715v-1.528c0-6.754 5.472-12.226 12.226-12.226h1.524z"/><path d="m380 91.529h-1.524c-6.754 0-12.226-5.477-12.226-12.227v-1.523h-8.715v1.523c0 6.75-5.477 12.227-12.227 12.227h-1.527v8.715h1.527c6.75 0 12.227 5.472 12.227 12.226v1.528h8.715v-1.528c0-6.754 5.472-12.226 12.226-12.226h1.524z"/></g></g></svg>