<svg id="Layer_3" enable-background="new 0 0 64 64" height="512" viewBox="0 0 64 64" width="512" xmlns="http://www.w3.org/2000/svg"><g><path d="m50.124 50h-44.248c-2.141 0-3.876-1.735-3.876-3.876v-32.248c0-2.141 1.735-3.876 3.876-3.876h44.248c2.141 0 3.876 1.735 3.876 3.876v32.248c0 2.141-1.735 3.876-3.876 3.876z" fill="#a2a6b2"/><path d="m6 14h44v32h-44z" fill="#9ad2fb"/><path d="m58 42h-40c-2.209 0-4-1.791-4-4v-32c0-2.209 1.791-4 4-4h40c2.209 0 4 1.791 4 4v32c0 2.209-1.791 4-4 4z" fill="#e7ebf2"/><path d="m44 34h-20c-1.105 0-2-.895-2-2v-12c0-1.105.895-2 2-2h20c1.105 0 2 .895 2 2v12c0 1.105-.895 2-2 2z" fill="#8b909f"/><path d="m40 38h-20c-1.105 0-2-.895-2-2v-12c0-1.105.895-2 2-2h20c1.105 0 2 .895 2 2v12c0 1.105-.895 2-2 2z" fill="#f08735"/><path d="m40.354 22.036c-.115-.021-.233-.036-.354-.036h-20c-1.105 0-2 .895-2 2v11.93c10.278-.647 18.884-6.231 22.354-13.894z" fill="#f39f5d"/><path d="m53 32c-1.657 0-3-1.343-3-3 0-1.657 1.343-3 3-3h2c1.657 0 3 1.343 3 3 0 1.657-1.343 3-3 3z" fill="#4590f4"/><path d="m21 50h14v6h-14z" fill="#b5b8c1"/><path d="m39 62h-22v-4c0-1.105.895-2 2-2h18c1.105 0 2 .895 2 2z" fill="#a2a6b2"/><path d="m50 38 4-8 4 8-4-2z" fill="#fff"/><path d="m62 6c0-2.209-1.791-4-4-4h-40c-2.209 0-4 1.791-4 4v4h48z" fill="#4590f4"/><g><g><path d="m55 5h2v2h-2z" fill="#fff"/></g></g><g><g><path d="m51 5h2v2h-2z" fill="#fff"/></g></g><g><g><path d="m47 5h2v2h-2z" fill="#fff"/></g></g><path d="m14 14h38c1.105 0 2-.895 2-2v-2h-40z" fill="#fff"/><g><path d="m21 10h2v4h-2z" fill="#e7ebf2"/></g><g><path d="m29 10h2v4h-2z" fill="#e7ebf2"/></g><g><path d="m37 10h2v4h-2z" fill="#e7ebf2"/></g><g><path d="m45 10h2v4h-2z" fill="#e7ebf2"/></g><path d="m36 30c-.366 0-.705.106-1 .277-.295-.171-.634-.277-1-.277-1.105 0-2 .895-2 2s.895 2 2 2c.366 0 .705-.106 1-.277.295.171.634.277 1 .277 1.105 0 2-.895 2-2s-.895-2-2-2z" fill="#646977"/><g><path d="m18 25h24v2h-24z" fill="#646977"/></g></g></svg>