<svg id="Layer_1" enable-background="new 0 0 511.98 511.98" height="512" viewBox="0 0 511.98 511.98" width="512" xmlns="http://www.w3.org/2000/svg"><g><path d="m408.346 165.394h-304.665l-103.608 52.358v28.017l255.917 143.406 255.917-143.406v-28.015z" fill="#ffaf00"/><path d="m408.346 165.394h-152.356v223.781l255.917-143.406v-28.015z" fill="#ff8f00"/><path d="m92.256 0v287.425l163.758 91.736 163.756-91.763v-287.398z" fill="#e6f6ff"/><path d="m255.99 0v379.148l.024.013 163.756-91.763v-287.398z" fill="#c5e8f2"/><g><path d="m192.925 200.328h30v67.005h-30z" fill="#537983"/></g><path d="m197.409 116.298c-21.874 0-39.67 17.796-39.67 39.67v19.69c0 21.874 17.796 39.67 39.67 39.67h47.944v-99.03z" fill="#ff8f00"/><g><path d="m306.397 150.776h31.01v30h-31.01z" fill="#537983"/></g><g><path d="m306.397 150.776h31.01v30h-31.01z" fill="#3e5959"/></g><path d="m306.397 91.469-83.472 24.829v99.03l83.472 24.829z" fill="#fff16b"/><path d="m306.397 91.469-50.407 14.994v118.7l50.407 14.994z" fill="#ffd321"/><g><path d="m291.397 78.292h30v175.042h-30z" fill="#ff8f00"/></g><path d="m255.99 354.786-255.917-137.034v294.228h56.764l199.153-121.309 199.153 121.309h56.764v-294.226z" fill="#ffd321"/><path d="m255.99 354.786v35.885l199.153 121.309h56.764v-294.226z" fill="#ffaf00"/><path d="m255.99 354.786-255.917 157.194h511.834z" fill="#ffaf00"/><g><path d="m291.397 78.292h30v175.042h-30z" fill="#ff415b"/></g><path d="m255.99 354.786v157.194h255.917z" fill="#ff8f00"/></g></svg>