<?xml version="1.0"?>
<svg xmlns="http://www.w3.org/2000/svg" viewBox="0 0 64 64" width="512" height="512"><path d="m43.922 34.35822v-2.71644l-2.19306-.96778a10.2998 10.2998 0 0 0 -.51312-1.64245l1.20844-2.08455a12.25892 12.25892 0 0 0 -1.57312-2.19812l-2.32044.53143a10.01529 10.01529 0 0 0 -1.36047-1.00631l-.22193-2.42511a11.71676 11.71676 0 0 0 -2.52465-.84889l-1.58143 1.83484h-1.68487l-1.58135-1.83484a11.71491 11.71491 0 0 0 -2.5246.84882l-.22192 2.42511a10.02264 10.02264 0 0 0 -1.36048 1.00622l-2.32043-.53143a12.2602 12.2602 0 0 0 -1.57318 2.19806l1.20837 2.08459a10.29775 10.29775 0 0 0 -.51312 1.64252l-2.19312.96783v2.71643l2.19306.96778a10.30338 10.30338 0 0 0 .51312 1.64245l-1.20844 2.08462a12.25842 12.25842 0 0 0 1.57312 2.19812l2.32043-.53143a10.02054 10.02054 0 0 0 1.36047 1.00631l.22193 2.42511a11.71571 11.71571 0 0 0 2.52466.84889l1.58142-1.83484h1.68487l1.58136 1.83484a11.71943 11.71943 0 0 0 2.5246-.84888l.22192-2.425a10.02838 10.02838 0 0 0 1.36048-1.00622l2.32043.53143a12.26065 12.26065 0 0 0 1.57318-2.19812l-1.20837-2.08459a10.29482 10.29482 0 0 0 .51312-1.64252zm-11.92224 5.64178a7 7 0 1 1 7-7 7 7 0 0 1 -7 7z" fill="#e06384"/><path d="m9.033 29.194a3 3 0 1 0 -4.06641 0 2.99225 2.99225 0 0 0 -1.96683 2.806v7h8v-7a2.99226 2.99226 0 0 0 -1.96676-2.806z" fill="#816892"/><path d="m38.99976 54h-1.09034a6.00547 6.00547 0 0 0 -4.90966-4.90967v-1.09033h-2v1.09033a6.00548 6.00548 0 0 0 -4.90967 4.90967h-1.09033v2h1.09033a6.00548 6.00548 0 0 0 4.90967 4.90967v1.09033h2v-1.09033a6.00547 6.00547 0 0 0 4.90966-4.90967h1.09034zm-6 4.858v-.858h-2v.858a3.99384 3.99384 0 0 1 -2.85798-2.858h.858v-2h-.858a3.99384 3.99384 0 0 1 2.858-2.858v.858h2v-.858a3.99385 3.99385 0 0 1 2.85795 2.858h-.858v2h.858a3.99385 3.99385 0 0 1 -2.85797 2.858z" fill="#59bc19"/><path d="m57.99976 31h-3a2 2 0 0 1 0-4h6v-2h-3v-2h-2v2h-1a4 4 0 0 0 0 8h3a2 2 0 1 1 0 4h-6v2h4v2h2v-2a4 4 0 1 0 0-8z" fill="#ed985f"/><path d="m31.99976 3a4.9039 4.9039 0 0 0 -5 4.80176 4.79759 4.79759 0 0 0 3 4.39642v4.80182h4v-4.80182a4.7976 4.7976 0 0 0 3-4.39642 4.90391 4.90391 0 0 0 -5-4.80176z" fill="#f4cc22"/><path d="m29.99976 13h4v4h-4z" fill="#f2aa68"/><g fill="#f4cc22"><path d="m21.99976 7h2v2h-2z"/><path d="m39.99976 7h2v2h-2z"/><path d="m38.99986 2.70714h1.99979v1.99979h-1.99979z" transform="matrix(.70710678 -.70710678 .70710678 .70710678 9.09439 29.36986)"/><path d="m22.99986 2.70714h1.99979v1.99979h-1.99979z" transform="matrix(.70710678 -.70710678 .70710678 .70710678 4.4081 18.05615)"/><path d="m22.99986 11.00011h1.99979v1.99979h-1.99979z" transform="matrix(.70710678 -.70710678 .70710678 .70710678 -1.45592 20.48511)"/><path d="m38.99986 11.00011h1.99979v1.99979h-1.99979z" transform="matrix(.70710678 -.70710678 .70710678 .70710678 3.23038 31.79882)"/></g><path d="m21.7937 56.91943a25.93971 25.93971 0 0 1 -13.62988-13.519l1.832-.80078a23.95249 23.95249 0 0 0 12.583 12.481z" fill="#5facf9"/><path d="m42.40015 56.83643-.80078-1.833a23.97044 23.97044 0 0 0 12.40429-12.40382l1.832.80078a25.96237 25.96237 0 0 1 -13.43551 13.43604z" fill="#5facf9"/><path d="m53.11987 21.5918a24.01741 24.01741 0 0 0 -9.71187-9.71241l.95117-1.75878a26.00868 26.00868 0 0 1 10.52051 10.519z" fill="#5facf9"/><path d="m10.87964 21.5918-1.75977-.95215a26.01531 26.01531 0 0 1 10.51953-10.519l.95118 1.75878a24.00916 24.00916 0 0 0 -9.71094 9.71237z" fill="#5facf9"/><path d="m31.99976 24a9 9 0 1 0 9 9 9 9 0 0 0 -9-9zm0 16a7 7 0 1 1 7-7 7 7 0 0 1 -7 7z" fill="#de2f55"/></svg>
