<?xml version="1.0" ?><svg viewBox="0 0 64 64" xmlns="http://www.w3.org/2000/svg"><defs><style>.cls-1{fill:#80ee98;}.cls-1,.cls-6,.cls-7{fill-rule:evenodd;}.cls-2{fill:#57cc98;}.cls-3{fill:#bec7d6;}.cls-4{fill:#c8f9cc;}.cls-5{fill:#94a1b2;}.cls-6{fill:#5e697b;}.cls-7{fill:#fcbf4a;}</style></defs><g data-name="Pay Per Clink" id="Pay_Per_Clink"><path class="cls-1" d="M4,13.61a2.77,2.77,0,0,1,2.77-2.77H57.23A2.77,2.77,0,0,1,60,13.61V45.87a2.77,2.77,0,0,1-2.77,2.77H6.77A2.77,2.77,0,0,1,4,45.87Z"/><path class="cls-2" d="M51.37,10.84v37.8h5.86A2.77,2.77,0,0,0,60,45.87V13.61a2.77,2.77,0,0,0-2.77-2.77Z"/><path class="cls-3" d="M49.85,31.68a6.42,6.42,0,0,1,6.44,6.44v8.59a6.45,6.45,0,1,1-12.89,0V38.12A6.43,6.43,0,0,1,49.85,31.68Z"/><circle class="cls-4" cx="15.32" cy="21.69" r="7.64"/><path class="cls-2" d="M10.64,33.38H25.27a1.75,1.75,0,1,1,0,3.5H10.64a1.75,1.75,0,0,1,0-3.5Z"/><path class="cls-2" d="M10.64,41.11H25.27a1.75,1.75,0,1,1,0,3.49H10.64a1.75,1.75,0,0,1,0-3.49Z"/><path class="cls-5" d="M49.85,31.68a6.43,6.43,0,0,0-6.45,6.44v6.19a6.45,6.45,0,0,1,12.89,0V38.12A6.42,6.42,0,0,0,49.85,31.68Z"/><path class="cls-6" d="M48.85,38V26.83a2.23,2.23,0,0,0-2.23-2.23h-.08a2.22,2.22,0,0,0-2.22,2.23v.66a4.22,4.22,0,1,1-8.44,0V14.89a1,1,0,0,1,2,0v12.6a2.22,2.22,0,1,0,4.44,0v-.66a4.22,4.22,0,0,1,4.22-4.23h.08a4.23,4.23,0,0,1,4.23,4.23V38a6.66,6.66,0,0,0-1-.08A6.4,6.4,0,0,0,48.85,38Z"/><path class="cls-7" d="M14.32,17.6v-.26a1,1,0,1,1,2,0v.26a2.66,2.66,0,0,1,.86.58,1,1,0,0,1-1.41,1.41.65.65,0,0,0-.45-.18h0a.64.64,0,0,0,0,1.28,2.64,2.64,0,0,1,1,5.08V26a1,1,0,0,1-2,0v-.26a2.58,2.58,0,0,1-.87-.57,1,1,0,0,1,0-1.42,1,1,0,0,1,1.41,0,.71.71,0,0,0,.4.19h.11a.65.65,0,0,0,.59-.64.64.64,0,0,0-.64-.64,2.64,2.64,0,0,1-1-5.09Z"/></g></svg>