<svg height="478pt" viewBox="-64 0 478 478.76" width="478pt" xmlns="http://www.w3.org/2000/svg"><path d="m350 66.558594v412.203125h-349.621094v-412.203125h51.191406v15.941406h72.398438v-15.941406h102.441406v15.941406h72.398438v-15.941406zm0 0" fill="#00acea"/><path d="m296.179688 133.878906v205h-241.980469v-205zm0 0" fill="#00efd1"/><path d="m216.96875 222.878906v11.542969c.003906 5.683594-4.277344 10.457031-9.929688 11.078125l-15.488281 1.699219v-37.097657l15.488281 1.699219c5.652344.617188 9.933594 5.394531 9.929688 11.078125zm0 0" fill="#00acea"/><path d="m191.550781 247.199219v28.441406l-67.839843-23.800781v-44.898438l67.839843-23.792968zm0 0" fill="#fedb41"/><path d="m123.710938 206.941406v44.898438h-34.949219c-1.480469 0-2.898438-.585938-3.941407-1.628906-1.046874-1.046876-1.632812-2.464844-1.628906-3.941407v-33.757812c-.003906-1.480469.582032-2.898438 1.628906-3.941407 1.042969-1.046874 2.460938-1.632812 3.941407-1.628906zm0 0" fill="#00acea"/><path d="m120.039062 251.839844-11.140624 37.769531h-19.347657v-37.769531zm0 0" fill="#fedb41"/><path d="m262.609375 50.710938c-3.3125 0-6-2.6875-6-6v-38.710938c0-3.3125 2.6875-6 6-6s6 2.6875 6 6v38.710938c0 3.3125-2.6875 6-6 6zm0 0" fill="#fedb41"/><path d="m87.769531 50.710938c-3.3125 0-6-2.6875-6-6v-38.710938c0-3.3125 2.6875-6 6-6s6 2.6875 6 6v38.710938c0 3.3125-2.6875 6-6 6zm0 0" fill="#fedb41"/><g fill="#00efd1"><path d="m297.210938 393.339844h-244.039063c-3.316406 0-6-2.6875-6-6s2.683594-6 6-6h244.039063c3.3125 0 6 2.6875 6 6s-2.6875 6-6 6zm0 0"/><path d="m297.210938 437.050781h-244.039063c-3.316406 0-6-2.6875-6-6 0-3.316406 2.683594-6 6-6h244.039063c3.3125 0 6 2.683594 6 6 0 3.3125-2.6875 6-6 6zm0 0"/><path d="m298.808594 66.558594v15.941406h-72.398438v-34.148438h72.398438zm0 0"/><path d="m123.96875 66.558594v15.941406h-72.398438v-34.148438h72.398438zm0 0"/></g><path d="m268.191406 235.378906h-33c-3.316406 0-6-2.683594-6-6 0-3.3125 2.683594-6 6-6h33c3.3125 0 6 2.6875 6 6 0 3.316406-2.6875 6-6 6zm0 0" fill="#fedb41"/><path d="m232.691406 215.425781c-3.027344.003907-5.582031-2.25-5.957031-5.25-.378906-3 1.539063-5.816406 4.46875-6.5625l23.359375-5.988281c3.210938-.824219 6.480469 1.109375 7.304688 4.320312.824218 3.210938-1.113282 6.480469-4.320313 7.300782l-23.363281 5.992187c-.488282.125-.988282.1875-1.492188.1875zm0 0" fill="#fedb41"/><path d="m256.054688 262.148438c-.503907 0-1.003907-.0625-1.492188-.1875l-23.363281-5.992188c-3.195313-.832031-5.117188-4.09375-4.296875-7.296875.820312-3.199219 4.074218-5.136719 7.277344-4.328125l23.363281 5.992188c2.929687.75 4.84375 3.5625 4.464843 6.5625-.375 3-2.929687 5.25-5.953124 5.25zm0 0" fill="#fedb41"/></svg>