<svg id="Capa_1" enable-background="new 0 0 512 512" height="512" viewBox="0 0 512 512" width="512" xmlns="http://www.w3.org/2000/svg"><g><path d="m62.796 202.207h147.903c5.522 0 10-4.478 10-10v-124.521c0-5.523-4.478-10-10-10h-147.903c-5.522 0-10 4.478-10 10v124.521c0 5.522 4.477 10 10 10zm10-124.521h127.903v104.521h-127.903z"/><path d="m285.074 77.686h139.379c5.522 0 10-4.478 10-10s-4.478-10-10-10h-139.379c-5.522 0-10 4.478-10 10s4.478 10 10 10z"/><path d="m424.453 160.7c5.522 0 10-4.478 10-10s-4.478-10-10-10h-139.379c-5.522 0-10 4.478-10 10s4.478 10 10 10z"/><path d="m446.409 99.193h-183.291c-5.522 0-10 4.478-10 10s4.478 10 10 10h183.291c5.522 0 10-4.478 10-10s-4.477-10-10-10z"/><path d="m253.118 192.207c0 5.522 4.478 10 10 10h183.291c5.522 0 10-4.478 10-10 0-5.523-4.478-10-10-10h-183.291c-5.522 0-10 4.477-10 10z"/><path d="m62.796 251.83h113.287c5.523 0 10-4.478 10-10s-4.477-10-10-10h-113.287c-5.522 0-10 4.478-10 10s4.477 10 10 10z"/><path d="m52.796 283.336c0 5.522 4.478 10 10 10h171.931c5.522 0 10-4.478 10-10s-4.478-10-10-10h-171.931c-5.523 0-10 4.477-10 10z"/><path d="m502 7.689h-201c-5.522 0-10 4.478-10 10 0 5.523 4.478 10 10 10h191v289.119h-35.591v-41.631c0-16.542-13.458-30-30-30h-115.205c-16.542 0-30 13.458-30 30v41.631h-261.204v-289.119h191c5.523 0 10-4.477 10-10 0-5.522-4.477-10-10-10h-201c-5.523 0-10 4.478-10 10v370.619c0 5.522 4.477 10 10 10h171.47v37.181h-53.73c-5.522 0-10 4.478-10 10v48.819c0 5.522 4.478 10 10 10h183.348c.039 0 .077.003.116.003h115.205c16.542 0 30-13.458 30-30v-76.003h45.591c5.522 0 10-4.478 10-10v-370.619c0-5.522-4.478-10-10-10zm-482 329.119h261.204v41.5h-261.204zm181.47 61.5h79.734v37.181h-79.734zm-63.73 57.181h143.464v18.822c0 3.504.61 6.868 1.719 9.997h-145.183zm298.669 18.822c0 5.514-4.486 10-10 10h-115.205c-.001 0-.003 0-.004 0v-.003h-.054c-5.487-.032-9.942-4.503-9.942-9.997v-199.134c0-5.514 4.486-10 10-10h18.272c0 5.523 4.478 10 10 10h58.66c5.523 0 10-4.477 10-10h18.273c5.514 0 10 4.486 10 10zm20-96.003v-41.5h35.591v41.5z"/><circle cx="256" cy="17.689" r="10"/><path d="m408.932 304.619h-80.25c-5.522 0-10 4.478-10 10v80.25c0 5.522 4.478 10 10 10h80.25c5.522 0 10-4.478 10-10v-80.25c0-5.523-4.478-10-10-10zm-10 80.25h-60.25v-60.25h60.25z"/><path d="m408.932 424.869h-80.25c-5.522 0-10 4.478-10 10s4.478 10 10 10h80.25c5.522 0 10-4.478 10-10 0-5.523-4.478-10-10-10z"/></g></svg>