<svg id="flat" height="512" viewBox="0 0 512 512" width="512" xmlns="http://www.w3.org/2000/svg"><path d="m368 104a16 16 0 0 0 -16-16h-312a16.23859 16.23859 0 0 0 -16.189 15.74085v32h344.189z" fill="#89a8f5"/><path d="m24 136v336a16 16 0 0 0 16 16h384a16 16 0 0 0 16-16v-336z" fill="#5771e5"/><g fill="#f7c04a"><path d="m184 176h96v40h-96z"/><path d="m56 288h96v40h-96z"/><path d="m72 408h80v40h-80z"/><path d="m312 408h80v40h-80z"/><path d="m184 368h96v40h-96z"/><path d="m184 288h96v40h-96z"/><path d="m312 288h96v40h-96z"/></g><path d="m224 328h16v40h-16z" fill="#89a8f5"/><path d="m352 256v32h16v-40a8.00008 8.00008 0 0 0 -8-8h-120v-24h-16v24h-120a8.00008 8.00008 0 0 0 -8 8v40h16v-32h112v32h16v-32z" fill="#89a8f5"/><path d="m112 360h-16v-32h-16v40a8.00008 8.00008 0 0 0 8 8h16v32h16v-40a8.00008 8.00008 0 0 0 -8-8z" fill="#89a8f5"/><path d="m368 328v32h-16a8.00008 8.00008 0 0 0 -8 8v40h16v-32h16a8.00008 8.00008 0 0 0 8-8v-40z" fill="#89a8f5"/><circle cx="48" cy="112" fill="#f79a7e" r="8"/><circle cx="72" cy="112" fill="#f7c04a" r="8"/><circle cx="96" cy="112" fill="#90d4b1" r="8"/><path d="m473.70947 96a14.53177 14.53177 0 0 1 -13.42529-8.97058 14.53148 14.53148 0 0 1 3.15039-15.8363l10.10449-10.10474-22.62744-22.62744-10.105 10.10473a14.53144 14.53144 0 0 1 -24.80662-10.27539v-14.29028h-32v14.29028a14.53144 14.53144 0 0 1 -24.80664 10.27539l-10.105-10.10473-22.62742 22.62744 10.10449 10.10474a14.53148 14.53148 0 0 1 3.15039 15.8363 14.53177 14.53177 0 0 1 -13.42529 8.97058h-14.29053v32h14.29053a14.53185 14.53185 0 0 1 13.42529 8.97046v.00012a14.53148 14.53148 0 0 1 -3.15039 15.8363l-10.10449 10.10474 22.62744 22.62744 10.105-10.10473a14.53137 14.53137 0 0 1 24.80662 10.27539v14.29028h32v-14.29028a14.53137 14.53137 0 0 1 24.80664-10.27539l10.105 10.10473 22.62744-22.62744-10.10449-10.10474a14.53148 14.53148 0 0 1 -3.15039-15.8363v-.00012a14.53185 14.53185 0 0 1 13.42527-8.97046h14.29053v-32zm-73.70947 40a24 24 0 1 1 24-24 23.99994 23.99994 0 0 1 -24 24z" fill="#ed6445"/></svg>